<?xml version="1.0" encoding="UTF-8"?>
<svg width="24px" height="24px" viewBox="0 0 24 24" version="1.1" xmlns="http://www.w3.org/2000/svg" xmlns:xlink="http://www.w3.org/1999/xlink">
    <!-- Generator: Sketch 45.1 (43504) - http://www.bohemiancoding.com/sketch -->
    <title></title>
    <desc>Created with Sketch.</desc>
    <defs></defs>
    <g id="Page-1" stroke="none" stroke-width="1" fill="none" fill-rule="evenodd">
        <g id="Artboard" transform="translate(-305.000000, -301.000000)" fill="#FFFFFF">
            <path d="M329,304 L329,322.0625 C329,322.854171 328.708336,323.541664 328.125,324.125 C327.541664,324.708336 326.833337,325 326,325 L308,325 C307.166662,325 306.458336,324.708336 305.875,324.125 C305.291664,323.541664 305,322.854171 305,322.0625 L305,304 C305,303.166663 305.291664,302.458336 305.875,301.875 C306.458336,301.291664 307.166662,301 308,301 L326,301 C326.833337,301 327.541664,301.291664 328.125,301.875 C328.708336,302.458336 329,303.166663 329,304 Z M317,308 C315.624993,308 314.447922,308.489578 313.46875,309.46875 C312.489578,310.447922 312,311.624993 312,313 C312,314.375007 312.489578,315.552078 313.46875,316.53125 C314.447922,317.510422 315.624993,318 317,318 C318.375007,318 319.552078,317.510422 320.53125,316.53125 C321.510422,315.552078 322,314.375007 322,313 C322,311.624993 321.510422,310.447922 320.53125,309.46875 C319.552078,308.489578 318.375007,308 317,308 Z M327,307 L327,304 C327,303.33333 326.66667,303 326,303 L323,303 C322.33333,303 322,303.33333 322,304 L322,307 C322,307.66667 322.33333,308 323,308 L326,308 C326.66667,308 327,307.66667 327,307 Z M326.0625,323 C326.687503,323 327,322.66667 327,322 L327,311 L323.75,311 C323.916668,311.541669 324,312.208329 324,313 C324,314.958343 323.33334,316.60416 322,317.9375 C320.624993,319.312507 318.958343,320 317,320 C315.083324,320 313.437507,319.312507 312.0625,317.9375 C310.687493,316.562493 310,314.916676 310,313 C310,312.374997 310.104166,311.708337 310.3125,311 L307,311 L307,322 C307,322.291668 307.104166,322.531249 307.3125,322.71875 C307.520834,322.906251 307.770832,323 308.0625,323 L326.0625,323 Z" id=""></path>
        </g>
    </g>
</svg>