<?xml version="1.0" encoding="UTF-8"?>
<svg width="28px" height="22px" viewBox="0 0 28 22" version="1.1" xmlns="http://www.w3.org/2000/svg" xmlns:xlink="http://www.w3.org/1999/xlink">
    <!-- Generator: Sketch 45.1 (43504) - http://www.bohemiancoding.com/sketch -->
    <title></title>
    <desc>Created with Sketch.</desc>
    <defs></defs>
    <g id="Page-1" stroke="none" stroke-width="1" fill="none" fill-rule="evenodd">
        <g id="Artboard" transform="translate(-217.000000, -302.000000)" fill="#FFFFFF">
            <path d="M242.3125,302 C243.020837,302 243.645831,302.270831 244.1875,302.8125 C244.729169,303.354169 245,303.979163 245,304.6875 L245,321.3125 C245,322.020837 244.729169,322.645831 244.1875,323.1875 C243.645831,323.729169 243.020837,324 242.3125,324 L219.6875,324 C218.979163,324 218.354169,323.729169 217.8125,323.1875 C217.270831,322.645831 217,322.020837 217,321.3125 L217,304.6875 C217,303.979163 217.270831,303.354169 217.8125,302.8125 C218.354169,302.270831 218.979163,302 219.6875,302 L242.3125,302 Z M242,307.6875 L242,305 L231,312.3125 L220,305 L220,307.6875 L231,315 L242,307.6875 Z" id=""></path>
        </g>
    </g>
</svg>